<svg width="20" height="21" viewBox="0 0 20 21" fill="none" xmlns="http://www.w3.org/2000/svg">
<g clip-path="url(#clip0_40_305)">
<path fill-rule="evenodd" clip-rule="evenodd" d="M10 0.5C4.477 0.5 0 4.984 0 10.517C0 14.942 2.865 18.697 6.839 20.021C7.339 20.113 7.521 19.804 7.521 19.538C7.521 19.301 7.513 18.67 7.508 17.835C4.726 18.44 4.139 16.492 4.139 16.492C3.685 15.334 3.029 15.026 3.029 15.026C2.121 14.406 3.098 14.418 3.098 14.418C4.101 14.488 4.629 15.45 4.629 15.45C5.521 16.98 6.97 16.538 7.539 16.282C7.631 15.635 7.889 15.194 8.175 14.944C5.955 14.691 3.62 13.831 3.62 9.993C3.62 8.9 4.01 8.005 4.649 7.305C4.546 7.052 4.203 6.033 4.747 4.655C4.747 4.655 5.587 4.385 7.497 5.681C8.31277 5.45851 9.15444 5.34519 10 5.344C10.85 5.348 11.705 5.459 12.504 5.681C14.413 4.385 15.251 4.654 15.251 4.654C15.797 6.033 15.453 7.052 15.351 7.305C15.991 8.005 16.379 8.9 16.379 9.993C16.379 13.841 14.04 14.688 11.813 14.936C12.172 15.245 12.491 15.856 12.491 16.791C12.491 18.129 12.479 19.21 12.479 19.538C12.479 19.806 12.659 20.118 13.167 20.02C15.1583 19.3521 16.8893 18.0753 18.1155 16.37C19.3416 14.6648 20.0009 12.6173 20 10.517C20 4.984 15.522 0.5 10 0.5Z" fill="currentColor"/>
</g>
<defs>
<clipPath id="clip0_40_305">
<rect width="20" height="20" fill="none" transform="translate(0 0.5)"/>
</clipPath>
</defs>
</svg>
