<svg width="20" height="21" viewBox="0 0 20 21" fill="none" xmlns="http://www.w3.org/2000/svg">
<path d="M6.2918 18.625C13.8371 18.625 17.9652 12.3723 17.9652 6.95161C17.9652 6.77583 17.9613 6.59614 17.9535 6.42036C18.7566 5.83961 19.4496 5.12027 20 4.29614C19.2521 4.62889 18.458 4.84621 17.6449 4.94067C18.5011 4.42748 19.1421 3.62129 19.4492 2.67153C18.6438 3.14886 17.763 3.48557 16.8445 3.66724C16.2257 3.0097 15.4075 2.57432 14.5164 2.42844C13.6253 2.28255 12.711 2.43427 11.9148 2.86014C11.1186 3.28601 10.4848 3.96232 10.1115 4.78449C9.73825 5.60666 9.64619 6.52891 9.84961 7.40864C8.21874 7.3268 6.62328 6.90315 5.16665 6.16514C3.71002 5.42714 2.42474 4.39126 1.39414 3.12466C0.870333 4.02776 0.710047 5.09643 0.945859 6.11347C1.18167 7.13051 1.79589 8.0196 2.66367 8.60005C2.01219 8.57937 1.37498 8.40396 0.804688 8.08833V8.13911C0.804104 9.08685 1.13175 10.0055 1.73192 10.739C2.3321 11.4725 3.16777 11.9755 4.09687 12.1625C3.49338 12.3277 2.85999 12.3517 2.2457 12.2329C2.50788 13.0479 3.01798 13.7608 3.70481 14.272C4.39164 14.7832 5.22093 15.0672 6.07695 15.0844C4.62369 16.226 2.82848 16.8452 0.980469 16.8422C0.652739 16.8417 0.325333 16.8216 0 16.7821C1.87738 17.9865 4.06128 18.6262 6.2918 18.625Z" fill="currentColor"/>
</svg>
